<svg xmlns="http://www.w3.org/2000/svg" width="160.35" height="58.809" viewBox="0 0 160.35 58.809"><defs><style>.a{fill:#fe0000;}.b,.c{stroke:none;}.c{fill:#f7f9f9;}</style></defs><g class="a" transform="translate(0 19.955)"><path class="b" d="M 148.0157775878906 37.35369873046875 L 12.33464622497559 37.35369873046875 C 9.37181282043457 37.35369873046875 6.601355075836182 36.46805191040039 4.533625602722168 34.85990524291992 C 2.577354907989502 33.33844757080078 1.500000715255737 31.34992790222168 1.500000715255737 29.2606143951416 L 1.500000715255737 2.400031805038452 C 1.500000715255737 0.3107193410396576 2.577354907989502 -1.677801489830017 4.533625602722168 -3.199259757995605 C 6.601355075836182 -4.807405471801758 9.37181282043457 -5.693051338195801 12.33464622497559 -5.693051338195801 L 12.40504264831543 -5.693051338195801 L 12.47510528564453 -5.699635028839111 L 148.0845489501953 -18.45493316650391 C 151.0214233398438 -18.44132041931152 153.7650909423828 -17.55698204040527 155.8168182373047 -15.96130180358887 C 157.7730560302734 -14.43984317779541 158.8504180908203 -12.45132255554199 158.8504180908203 -10.36201000213623 L 158.8504180908203 29.2606143951416 C 158.8504180908203 31.34992790222168 157.7730560302734 33.33844757080078 155.8168182373047 34.85990524291992 C 153.7490692138672 36.46805191040039 150.9786071777344 37.35369873046875 148.0157775878906 37.35369873046875 Z"/><path class="c" d="M 148.1494598388672 -16.95441436767578 L 12.61557006835938 -4.206220626831055 L 12.47541809082031 -4.193038940429688 L 12.33464050292969 -4.193038940429688 C 9.703689575195313 -4.193038940429688 7.26025390625 -3.419607162475586 5.454498291015625 -2.01519775390625 C 3.871688842773438 -0.7841968536376953 3 0.7838249206542969 3 2.400030136108398 L 3 29.2606201171875 C 3 30.8768253326416 3.871688842773438 32.44484710693359 5.454498291015625 33.67584991455078 C 7.26025390625 35.08025741577148 9.703689575195313 35.85369110107422 12.33464050292969 35.85369110107422 L 148.0157775878906 35.85369110107422 C 150.646728515625 35.85369110107422 153.0901641845703 35.08025741577148 154.8959197998047 33.67584991455078 C 156.4787292480469 32.44484710693359 157.3504180908203 30.8768253326416 157.3504180908203 29.2606201171875 L 157.3504180908203 -10.36201477050781 C 157.3504180908203 -11.97821998596191 156.4787292480469 -13.54624176025391 154.8959197998047 -14.77724456787109 C 153.1208038330078 -16.15782165527344 150.7293853759766 -16.92865371704102 148.1494598388672 -16.95441436767578 M 148.0157775878906 -19.95508193969727 C 154.8280029296875 -19.95508193969727 160.3504180908203 -15.66012954711914 160.3504180908203 -10.36201477050781 L 160.3504180908203 29.2606201171875 C 160.3504180908203 34.55873489379883 154.8280029296875 38.85369110107422 148.0157775878906 38.85369110107422 L 12.33464050292969 38.85369110107422 C 5.522415161132813 38.85369110107422 0 34.55873489379883 0 29.2606201171875 L 0 2.400030136108398 C 0 -2.89808464050293 5.522415161132813 -7.193038940429688 12.33464050292969 -7.193038940429688 L 148.0157775878906 -19.95508193969727 Z"/></g></svg>